<?xml version="1.0" standalone="no"?>
<!DOCTYPE svg PUBLIC "-//W3C//DTD SVG 20010904//EN"
 "http://www.w3.org/TR/2001/REC-SVG-20010904/DTD/svg10.dtd">
<svg version="1.0" xmlns="http://www.w3.org/2000/svg"
 width="1000.000000pt" height="1000.000000pt" viewBox="0 0 1000.000000 1000.000000"
 preserveAspectRatio="xMidYMid meet">

<g transform="translate(0.000000,1000.000000) scale(0.100000,-0.100000)"
fill="#ffffff" stroke="none">
<path d="M650 8260 l0 -1170 50 0 50 0 0 1120 0 1120 850 0 850 0 0 50 0 50
-900 0 -900 0 0 -1170z"/>
<path d="M7290 9380 l0 -50 1005 0 1005 0 0 -1120 0 -1120 50 0 50 0 0 1170 0
1170 -1055 0 -1055 0 0 -50z"/>
<path d="M4845 8714 c-16 -2 -66 -9 -110 -15 -265 -34 -561 -154 -795 -322
-114 -82 -296 -261 -383 -377 -481 -639 -487 -1521 -15 -2162 84 -114 253
-285 369 -373 634 -479 1521 -485 2161 -13 114 84 285 253 373 369 485 641
485 1537 0 2178 -88 116 -259 285 -373 369 -223 165 -496 280 -777 328 -87 15
-388 27 -450 18z"/>
<path d="M4850 4724 c-676 -61 -1220 -258 -1749 -632 -274 -194 -579 -499
-773 -773 -224 -317 -400 -677 -502 -1025 -53 -185 -116 -507 -116 -598 l0
-26 3371 0 3372 0 -7 73 c-24 246 -106 569 -213 842 -168 427 -425 818 -758
1150 -276 277 -547 471 -900 645 -355 174 -689 275 -1085 325 -119 16 -541 28
-640 19z"/>
<path d="M650 1620 l0 -940 900 0 900 0 0 50 0 50 -850 0 -850 0 0 890 0 890
-50 0 -50 0 0 -940z"/>
<path d="M9300 1670 l0 -890 -1005 0 -1005 0 0 -50 0 -50 1055 0 1055 0 0 940
0 940 -50 0 -50 0 0 -890z"/>
</g>
</svg>
